<mxfile host="app.diagrams.net" modified="2020-06-01T16:07:32.183Z" agent="5.0 (Macintosh; Intel Mac OS X 10_15_3) AppleWebKit/537.36 (KHTML, like Gecko) Chrome/83.0.4103.61 Safari/537.36" etag="0-gd5OGQm8ujq8FOrj7b" version="13.1.3" type="github">
  <diagram id="5Cw2nQxGaLWoQe9xd4y4" name="Page-1">
    <mxGraphModel dx="906" dy="590" grid="1" gridSize="10" guides="1" tooltips="1" connect="1" arrows="1" fold="1" page="1" pageScale="1" pageWidth="827" pageHeight="1169" math="0" shadow="0">
      <root>
        <mxCell id="0" />
        <mxCell id="1" parent="0" />
        <mxCell id="V2vGOV_dG1tEtstJIE-F-3" style="edgeStyle=orthogonalEdgeStyle;rounded=0;orthogonalLoop=1;jettySize=auto;html=1;" edge="1" parent="1" source="V2vGOV_dG1tEtstJIE-F-1" target="V2vGOV_dG1tEtstJIE-F-2">
          <mxGeometry relative="1" as="geometry" />
        </mxCell>
        <mxCell id="V2vGOV_dG1tEtstJIE-F-1" value="划卡" style="rounded=1;whiteSpace=wrap;html=1;fillColor=#dae8fc;strokeColor=#6c8ebf;" vertex="1" parent="1">
          <mxGeometry x="240" y="100" width="120" height="60" as="geometry" />
        </mxCell>
        <mxCell id="V2vGOV_dG1tEtstJIE-F-4" style="edgeStyle=orthogonalEdgeStyle;rounded=0;orthogonalLoop=1;jettySize=auto;html=1;" edge="1" parent="1" source="V2vGOV_dG1tEtstJIE-F-2">
          <mxGeometry relative="1" as="geometry">
            <mxPoint x="590" y="130" as="targetPoint" />
          </mxGeometry>
        </mxCell>
        <mxCell id="V2vGOV_dG1tEtstJIE-F-2" value="匹配" style="rounded=1;whiteSpace=wrap;html=1;fillColor=#dae8fc;strokeColor=#6c8ebf;" vertex="1" parent="1">
          <mxGeometry x="420" y="100" width="120" height="60" as="geometry" />
        </mxCell>
        <mxCell id="V2vGOV_dG1tEtstJIE-F-5" value="聊天" style="rounded=1;whiteSpace=wrap;html=1;fillColor=#dae8fc;strokeColor=#6c8ebf;" vertex="1" parent="1">
          <mxGeometry x="590" y="100" width="120" height="60" as="geometry" />
        </mxCell>
        <mxCell id="V2vGOV_dG1tEtstJIE-F-9" style="edgeStyle=orthogonalEdgeStyle;rounded=0;orthogonalLoop=1;jettySize=auto;html=1;entryX=0;entryY=0.5;entryDx=0;entryDy=0;" edge="1" parent="1" source="V2vGOV_dG1tEtstJIE-F-6" target="V2vGOV_dG1tEtstJIE-F-7">
          <mxGeometry relative="1" as="geometry" />
        </mxCell>
        <mxCell id="V2vGOV_dG1tEtstJIE-F-6" value="关注" style="rounded=1;whiteSpace=wrap;html=1;fillColor=#dae8fc;strokeColor=#6c8ebf;" vertex="1" parent="1">
          <mxGeometry x="420" y="210" width="120" height="60" as="geometry" />
        </mxCell>
        <mxCell id="V2vGOV_dG1tEtstJIE-F-8" style="edgeStyle=orthogonalEdgeStyle;rounded=0;orthogonalLoop=1;jettySize=auto;html=1;" edge="1" parent="1" source="V2vGOV_dG1tEtstJIE-F-7" target="V2vGOV_dG1tEtstJIE-F-5">
          <mxGeometry relative="1" as="geometry" />
        </mxCell>
        <mxCell id="V2vGOV_dG1tEtstJIE-F-7" value="互关" style="rounded=1;whiteSpace=wrap;html=1;fillColor=#dae8fc;strokeColor=#6c8ebf;" vertex="1" parent="1">
          <mxGeometry x="590" y="210" width="120" height="60" as="geometry" />
        </mxCell>
        <mxCell id="V2vGOV_dG1tEtstJIE-F-11" style="edgeStyle=orthogonalEdgeStyle;rounded=0;orthogonalLoop=1;jettySize=auto;html=1;entryX=0;entryY=0.5;entryDx=0;entryDy=0;" edge="1" parent="1" source="V2vGOV_dG1tEtstJIE-F-10" target="V2vGOV_dG1tEtstJIE-F-1">
          <mxGeometry relative="1" as="geometry" />
        </mxCell>
        <mxCell id="V2vGOV_dG1tEtstJIE-F-12" style="edgeStyle=orthogonalEdgeStyle;rounded=0;orthogonalLoop=1;jettySize=auto;html=1;entryX=0;entryY=0.5;entryDx=0;entryDy=0;" edge="1" parent="1" source="V2vGOV_dG1tEtstJIE-F-10" target="V2vGOV_dG1tEtstJIE-F-6">
          <mxGeometry relative="1" as="geometry" />
        </mxCell>
        <mxCell id="V2vGOV_dG1tEtstJIE-F-16" style="edgeStyle=orthogonalEdgeStyle;rounded=0;orthogonalLoop=1;jettySize=auto;html=1;entryX=0;entryY=0.5;entryDx=0;entryDy=0;" edge="1" parent="1" source="V2vGOV_dG1tEtstJIE-F-10" target="V2vGOV_dG1tEtstJIE-F-14">
          <mxGeometry relative="1" as="geometry" />
        </mxCell>
        <mxCell id="V2vGOV_dG1tEtstJIE-F-17" style="edgeStyle=orthogonalEdgeStyle;rounded=0;orthogonalLoop=1;jettySize=auto;html=1;entryX=0;entryY=0.5;entryDx=0;entryDy=0;" edge="1" parent="1" source="V2vGOV_dG1tEtstJIE-F-10" target="V2vGOV_dG1tEtstJIE-F-15">
          <mxGeometry relative="1" as="geometry" />
        </mxCell>
        <mxCell id="V2vGOV_dG1tEtstJIE-F-23" style="edgeStyle=orthogonalEdgeStyle;rounded=0;orthogonalLoop=1;jettySize=auto;html=1;entryX=0;entryY=0.5;entryDx=0;entryDy=0;" edge="1" parent="1" source="V2vGOV_dG1tEtstJIE-F-10" target="V2vGOV_dG1tEtstJIE-F-22">
          <mxGeometry relative="1" as="geometry" />
        </mxCell>
        <mxCell id="V2vGOV_dG1tEtstJIE-F-10" value="用户" style="shape=umlActor;verticalLabelPosition=bottom;labelBackgroundColor=#ffffff;verticalAlign=top;html=1;outlineConnect=0;" vertex="1" parent="1">
          <mxGeometry x="60" y="210" width="30" height="60" as="geometry" />
        </mxCell>
        <mxCell id="V2vGOV_dG1tEtstJIE-F-21" style="edgeStyle=orthogonalEdgeStyle;rounded=0;orthogonalLoop=1;jettySize=auto;html=1;entryX=0.5;entryY=1;entryDx=0;entryDy=0;" edge="1" parent="1" source="V2vGOV_dG1tEtstJIE-F-14" target="V2vGOV_dG1tEtstJIE-F-18">
          <mxGeometry relative="1" as="geometry">
            <Array as="points">
              <mxPoint x="650" y="550" />
            </Array>
          </mxGeometry>
        </mxCell>
        <mxCell id="V2vGOV_dG1tEtstJIE-F-14" value="发动态" style="rounded=1;whiteSpace=wrap;html=1;fillColor=#dae8fc;strokeColor=#6c8ebf;" vertex="1" parent="1">
          <mxGeometry x="240" y="520" width="120" height="60" as="geometry" />
        </mxCell>
        <mxCell id="V2vGOV_dG1tEtstJIE-F-19" style="edgeStyle=orthogonalEdgeStyle;rounded=0;orthogonalLoop=1;jettySize=auto;html=1;entryX=0;entryY=0.5;entryDx=0;entryDy=0;" edge="1" parent="1" source="V2vGOV_dG1tEtstJIE-F-15" target="V2vGOV_dG1tEtstJIE-F-18">
          <mxGeometry relative="1" as="geometry" />
        </mxCell>
        <mxCell id="V2vGOV_dG1tEtstJIE-F-20" style="edgeStyle=orthogonalEdgeStyle;rounded=0;orthogonalLoop=1;jettySize=auto;html=1;entryX=0.5;entryY=1;entryDx=0;entryDy=0;" edge="1" parent="1" source="V2vGOV_dG1tEtstJIE-F-15" target="V2vGOV_dG1tEtstJIE-F-6">
          <mxGeometry relative="1" as="geometry" />
        </mxCell>
        <mxCell id="V2vGOV_dG1tEtstJIE-F-15" value="看动态" style="rounded=1;whiteSpace=wrap;html=1;fillColor=#dae8fc;strokeColor=#6c8ebf;" vertex="1" parent="1">
          <mxGeometry x="240" y="430" width="120" height="60" as="geometry" />
        </mxCell>
        <mxCell id="V2vGOV_dG1tEtstJIE-F-18" value="点赞，评论" style="rounded=1;whiteSpace=wrap;html=1;fillColor=#dae8fc;strokeColor=#6c8ebf;" vertex="1" parent="1">
          <mxGeometry x="590" y="430" width="120" height="60" as="geometry" />
        </mxCell>
        <mxCell id="V2vGOV_dG1tEtstJIE-F-24" style="edgeStyle=orthogonalEdgeStyle;rounded=0;orthogonalLoop=1;jettySize=auto;html=1;entryX=0.5;entryY=0;entryDx=0;entryDy=0;" edge="1" parent="1" source="V2vGOV_dG1tEtstJIE-F-22" target="V2vGOV_dG1tEtstJIE-F-5">
          <mxGeometry relative="1" as="geometry" />
        </mxCell>
        <mxCell id="V2vGOV_dG1tEtstJIE-F-22" value="闪聊" style="rounded=1;whiteSpace=wrap;html=1;fillColor=#dae8fc;strokeColor=#6c8ebf;" vertex="1" parent="1">
          <mxGeometry x="240" width="120" height="60" as="geometry" />
        </mxCell>
      </root>
    </mxGraphModel>
  </diagram>
</mxfile>
